<?xml version="1.0" encoding="UTF-8"?>
<svg xmlns="http://www.w3.org/2000/svg" viewBox="0 0 100.1 136.05" width="600.58" height="816.31">
<title>Lucient — ícono</title>
<defs><linearGradient id="icon" gradientUnits="userSpaceOnUse" x1="7" y1="129.55" x2="93.61" y2="6.5"><stop offset="0" stop-color="#193733"/><stop offset="0.26" stop-color="#1F4039"/><stop offset="0.52" stop-color="#3C6A4A"/><stop offset="0.79" stop-color="#58904C"/><stop offset="1" stop-color="#72AC4A"/></linearGradient></defs>
<path fill="url(#icon)" d="M91.25 6.22C90.98 6.35 89.87 7.03 88.79 7.75C86.22 9.46 83.03 11.47 80.8 12.81C79.82 13.41 78.67 14.12 78.25 14.41C77.84 14.71 76.72 15.41 75.75 15.98C74.79 16.56 72.83 17.81 71.4 18.76C69.97 19.71 68.14 20.87 67.34 21.35C65.99 22.13 64.73 22.88 60.94 25.2C60.15 25.67 58.9 26.46 58.17 26.93C57.44 27.41 56.48 28.02 56.04 28.31C55.6 28.58 54.15 29.55 52.82 30.43C51.48 31.33 49.88 32.35 49.25 32.7C44.2 35.51 35.57 41.91 30.83 46.35C28.44 48.58 25.07 52.05 24.02 53.33C23.53 53.93 22.78 54.85 22.35 55.36C21.94 55.87 21.14 56.91 20.6 57.67C20.05 58.42 19.29 59.5 18.89 60.05C18.49 60.6 17.87 61.55 17.5 62.17C17.14 62.78 16.37 64.11 15.78 65.11C12.04 71.47 8.45 81.5 7.44 88.42C7.3 89.31 7.1 90.52 7 91.11C5.88 97.28 5.68 107.46 6.5 115.61C6.62 116.61 6.78 118.37 6.88 119.55C6.98 120.71 7.19 122.32 7.37 123.11C7.54 123.9 7.79 125.27 7.93 126.17C8.68 131.01 9.25 131.17 12.85 127.52C18.9 121.4 19.45 120.9 25.27 116.46C26.49 115.51 27.9 114.46 28.38 114.12C28.87 113.78 29.99 112.96 30.88 112.31C32.34 111.22 34.32 109.88 38.28 107.28C39.02 106.8 40.17 106.05 40.82 105.62C41.47 105.18 43.67 103.73 45.69 102.38C47.72 101.05 50.42 99.27 51.69 98.46C52.97 97.63 54.79 96.37 55.75 95.66C56.72 94.95 58.29 93.8 59.25 93.1C60.22 92.4 61.48 91.42 62.05 90.93C62.63 90.45 63.55 89.68 64.13 89.23C68.29 85.93 76.34 77.66 78.52 74.46C78.72 74.16 79.35 73.25 79.95 72.42C82.98 68.2 84.72 65.33 86.02 62.43C86.5 61.32 87.24 59.75 87.67 58.91C88.08 58.07 88.74 56.5 89.13 55.41C89.5 54.32 90.08 52.72 90.39 51.87C91.69 48.33 92.95 42.25 93.44 37.23C93.5 36.51 93.65 35.25 93.75 34.42C94.22 30.77 94.22 14.75 93.77 11.92C93.65 11.23 93.48 9.88 93.39 8.91C93.2 6.92 93.02 6.43 92.38 6.16C91.84 5.95 91.85 5.93 91.25 6.22Z"/>
</svg>
